PathFileType	4	(X/Y/Z)	C:\Users\chris\Documents\GitHub\baseballds\vids\pitch5_Sports2D\pitch5_Sports2D_m_person00.trc
DataRate	CameraRate	NumFrames	NumMarkers	Units	OrigDataRate	OrigDataStartFrame	OrigNumFrames
30	30	8	22	m	30	111	149
Frame#	Time	Hip			RHip			RKnee			RAnkle			RBigToe			RSmallToe			RHeel			LHip			LKnee			LAnkle			LBigToe			LSmallToe			LHeel			Neck			Head			Nose			RShoulder			RElbow			RWrist			LShoulder			LElbow			LWrist		
		X1	Y1	Z1	X2	Y2	Z2	X3	Y3	Z3	X4	Y4	Z4	X5	Y5	Z5	X6	Y6	Z6	X7	Y7	Z7	X8	Y8	Z8	X9	Y9	Z9	X10	Y10	Z10	X11	Y11	Z11	X12	Y12	Z12	X13	Y13	Z13	X14	Y14	Z14	X15	Y15	Z15	X16	Y16	Z16	X17	Y17	Z17	X18	Y18	Z18	X19	Y19	Z19	X20	Y20	Z20	X21	Y21	Z21	X22	Y22	Z22
111	3.6999999999999997	1.8615757359919018	0.7946774475481072	0.0	1.7487711086958326	0.7630466785738867	0.0	1.6093938635287806	0.37127812609826133	0.0	1.4990633827346023	0.09827864375377648	0.0	1.4744323400099169	-0.06407281335425376	0.0	1.4132466506195813	-0.030261121454387092	0.0	1.5049365212393493	0.0735707546406893	0.0	1.9784776219009788	0.7941694045595352	0.0	2.0639815954663643	0.37924718195466184	0.0	2.1507251323234753	-0.031115770393207252	0.0	2.124666159974773	-0.08183468692029101	0.0	2.2001586085075515	-0.08430907449031005	0.0	2.1519077165060443	-0.06254989031606534	0.0	1.6939601041486263	1.2546327194105813	0.0	1.6756109422315577	1.5475035447567789	0.0	1.810730026133143	1.388933416466733	0.0	1.520104067683109	1.1285773694027053	0.0	1.4385867952750218	0.8806875506681787	0.0	1.404118299567669	0.5951890162503356	0.0	1.8986305796522014	1.276595868406708	0.0	2.1438689879756097	1.1696411086854437	0.0	2.316773965090311	1.0381411390412372	0.0
112	3.7333333333333334	1.9009268886654065	0.7622408652083033	0.0	1.784775648897202	0.7277678633682184	0.0	1.6097740770817208	0.3665665200487521	0.0	1.4991902152663783	0.09593024213582248	0.0	1.4692003075136888	-0.06293475774860383	0.0	1.4120189078224403	-0.02940384268561441	0.0	1.5089652885150309	0.06880610538716582	0.0	2.0243919289063874	0.7611902530827404	0.0	2.167681636530246	0.3613967809079286	0.0	2.321617046566073	-0.01749598808925549	0.0	2.344679660355282	-0.06454740951504653	0.0	2.407880944418481	-0.05858941081594067	0.0	2.319542179463172	-0.04496968504087543	0.0	1.7463843306967177	1.2210047590213837	0.0	1.733584378818305	1.5041909011242645	0.0	1.8725344170542209	1.3521378348891715	0.0	1.5685550872592762	1.0933366766764516	0.0	1.4523272773250995	0.8554803502023147	0.0	1.364498264151691	0.5724666946626737	0.0	1.9515767501017305	1.2497109563224662	0.0	2.1953070459596185	1.1989421394102495	0.0	2.4351999224428558	1.1499466220155616	0.0
113	3.7666666666666666	1.946157740721528	0.7319084853624181	0.0	1.826789581065166	0.6942147496835273	0.0	1.6191790936493649	0.36587736506709306	0.0	1.4970019078560288	0.0911913708044974	0.0	1.4662429150392144	-0.06151832052165451	0.0	1.4094080586510374	-0.03075366628570234	0.0	1.5081032685397517	0.061646840023706566	0.0	2.075882834203506	0.728561518097397	0.0	2.276661254705504	0.345733739215363	0.0	2.498157205763766	0.001821431623397739	0.0	2.5792138298399303	-0.044455150142790535	0.0	2.621753966222106	-0.027048776781439576	0.0	2.497700400886412	-0.02437721071894817	0.0	1.8101965321813123	1.1950552825814553	0.0	1.8060086576589196	1.4645643194790592	0.0	1.9452878685342314	1.3224763788423062	0.0	1.6318554436267216	1.0760774811604386	0.0	1.4755114811955423	0.855769783465512	0.0	1.340836391765283	0.5835812259345879	0.0	2.0178565724536273	1.2264172205741979	0.0	2.2657180656423246	1.2435300836447705	0.0	2.531010417992152	1.2796180382374527	0.0
114	3.8	2.002103239808822	0.7096671077358823	0.0	1.8796502680017426	0.6714654484501734	0.0	1.6497676809038886	0.36455645477629955	0.0	1.4952017426076059	0.08727803528387477	0.0	1.4670654939821686	-0.06381966259904394	0.0	1.4075448100217784	-0.03330446524677273	0.0	1.5012223774540427	0.05787647807156868	0.0	2.1352969898092704	0.7042561644998826	0.0	2.38856814322772	0.3381594711512682	0.0	2.670661313608851	0.019319056358754368	0.0	2.818858877460479	-0.02326193023624522	0.0	2.835512468759942	0.005174499887602867	0.0	2.673120359735996	-0.008161521835669181	0.0	1.887815917244266	1.176381376438405	0.0	1.889694944706063	1.4376017961890546	0.0	2.0269450564043643	1.3035058972802571	0.0	1.7077125488149942	1.0742519137866853	0.0	1.5143606303673365	0.8857850850707324	0.0	1.3625997144381599	0.6489609866805646	0.0	2.097691943529132	1.209725179131475	0.0	2.3501547850619984	1.2892646394765936	0.0	2.6109665372453956	1.3976152001564144	0.0
115	3.8333333333333335	2.0741449534077896	0.6981136379954389	0.0	1.9492915968585087	0.6616846843083823	0.0	1.7087799965161654	0.35708956438032885	0.0	1.4974409000153712	0.08563699608053126	0.0	1.468871852866142	-0.06870763235597616	0.0	1.4079751703749142	-0.0343210165273263	0.0	1.496108233918989	0.05967795659584086	0.0	2.2073290566318087	0.6916075147985431	0.0	2.5004691196963096	0.3443237552867731	0.0	2.8273114537815704	0.028828296021610435	0.0	3.0236130066450615	-0.003249427152088612	0.0	3.019978354313659	0.030152789169445766	0.0	2.8310067264630443	-0.0014746164781546697	0.0	1.9772385150743033	1.1678248317622646	0.0	1.9780942920263735	1.4271522133645191	0.0	2.111720139947073	1.2950810647328064	0.0	1.7941876661514622	1.0829050543960637	0.0	1.576324199650598	0.9506250405945512	0.0	1.449870299936108	0.7889780813867419	0.0	2.1854943411481895	1.2000014062287587	0.0	2.4383609982234753	1.3154694020034934	0.0	2.6837022457946205	1.4754093288275183	0.0
116	3.8666666666666667	2.162503669981796	0.6950150121785121	0.0	2.0368676973837427	0.658229314808285	0.0	1.793794381232963	0.3407116869797299	0.0	1.5082310270782358	0.08508490706096596	0.0	1.466834461217438	-0.07187107065315168	0.0	1.409977482409279	-0.031158181625934256	0.0	1.501920569416651	0.06448670974058787	0.0	2.294617983454912	0.6862100577963129	0.0	2.6135048838829116	0.3653933554140635	0.0	2.952032019039611	0.029636695479505166	0.0	3.1555404610593367	0.011990941810520446	0.0	3.1456616977091953	0.04265508435093758	0.0	2.952040496684924	-0.0037042493425261712	0.0	2.0716428428076235	1.1749954191466894	0.0	2.0678523344867554	1.4324243549461175	0.0	2.197090302922892	1.2970345766026299	0.0	1.8859233058101952	1.1018660992943923	0.0	1.6546366691226053	1.0407081701432888	0.0	1.5741127384397782	0.9507998351773879	0.0	2.275203998416114	1.197511680891151	0.0	2.525317665681253	1.312907057145336	0.0	2.75208749577135	1.4972497451754483	0.0
117	3.9	2.2641978652711563	0.6945952833700622	0.0	2.1386012853203566	0.6533723702362837	0.0	1.8947129619855092	0.31561102540116076	0.0	1.5353754189492461	0.0876352590715803	0.0	1.463691997997816	-0.07277927992150729	0.0	1.4146533668320793	-0.02497706601734795	0.0	1.5260820016392105	0.0722164441274513	0.0	2.3955862466907023	0.680819003727939	0.0	2.7296637396855714	0.3959179395402267	0.0	3.031269412531179	0.02643264490294921	0.0	3.2191739331116676	0.01797504798325072	0.0	3.213751782735888	0.04134186563287167	0.0	3.022736322095731	-0.01044470713649486	0.0	2.1680883181041013	1.1978849586489453	0.0	2.1628684235386983	1.4522954021441252	0.0	2.2881918066340097	1.31438640453605	0.0	1.9799734225788164	1.1316653593839807	0.0	1.733745475507452	1.124201950279928	0.0	1.703667121772514	1.0700174056239842	0.0	2.369007681599228	1.203363611158563	0.0	2.6116412346094187	1.2864347466434163	0.0	2.802849647841006	1.4596869369907737	0.0
118	3.933333333333333	2.37418785689215	0.6910151084311735	0.0	2.248720383639179	0.6449200131604325	0.0	2.0002976573182094	0.28788621308432893	0.0	1.587316422434021	0.10168028558416149	0.0	1.4710386496421108	-0.06957097442600353	0.0	1.4288141515726382	-0.015956207525984548	0.0	1.5740420783464344	0.09261281962634518	0.0	2.503867919617025	0.6737418752284414	0.0	2.8432357746222583	0.42423366963616527	0.0	3.0689202730481457	0.025055282683927267	0.0	3.2476327309110156	0.013118106415588433	0.0	3.2465886011079332	0.028845235475004723	0.0	3.050364482066818	-0.01541922761150538	0.0	2.272771072429759	1.2246541750436322	0.0	2.2708530501687614	1.4807552474288739	0.0	2.392476878367919	1.3479683647315879	0.0	2.082832706894606	1.1607738685960591	0.0	1.8093223267765597	1.1668021991125395	0.0	1.8599771795219169	1.1629369959348006	0.0	2.475825911082341	1.2129823350462041	0.0	2.7018463967140742	1.2392059555818995	0.0	2.8277990313586643	1.3655906950447563	0.0
